# xmcd
#
# Track frame offsets: 
#        150
#        13242
#        18584
#        36457
#        50244
#        51303
#        69296
#        88126
#        89595
#        96196
#        100458
#        101242
#        118109
#        118918
#        127779
#        136731
#        139800
#        146486
#        164182
#        170261
#        183873
#        185145
#        187178
#        199556
#        211941
#        221701
#        231788
#        233057
#        242647
#        252061
#        262265
#        264065
#        272996
#        274437
#        283972
#        296912
#        301756
#        317690
#        327089
#        334252
#        339522
#
# Disc length: 4573 seconds
#
# Revision: 0
# Processed by: cddbd v1.5.2PL0 Copyright (c) Steve Scherf et al.
# Submitted via: ExactAudioCopy v0.95b3
#
DISCID=9111db29
DTITLE=The Beatles  - The Beatles Deluxe - Disc 08 - sessions  PC-138 
DTITLE=FLAC
DYEAR=1900
DGENRE=
TTITLE0=01 Mother Nature's Son RM8 - 01 Mother Nature's Son RM8
TTITLE1=02 Wild Honey Pie RM6 - 02 Wild Honey Pie RM6
TTITLE2=03 Sexy Sadie RM5 unedited - 03 Sexy Sadie RM5 unedited
TTITLE3=Back In The USSR RM1
TTITLE4=Dear Prudence backing vocal fragment
TTITLE5=Dear Prudence a
TTITLE6=Dear Prudence b
TTITLE7=While My Guitar Gently Weeps - studio chat
TTITLE8=Lady Madonna - rehearsal
TTITLE9=While My Guitar Gently Weeps - rehearsal
TTITLE10=Helter Skelter - vocal fragment
TTITLE11=Helter Skelter RM1
TTITLE12=I Will - take 1 fragment
TTITLE13=I Will - take 1
TTITLE14=I Will - take 19 - Can You Take Me Back
TTITLE15=I Will - take 30 - Down In Havana
TTITLE16=I Will - take 34 - Step Inside Love
TTITLE17=I Will - take 35 - Los Paranoias
TTITLE18=I Will - take 36 - The Way You Look Tonight
TTITLE19=Birthday - RM1
TTITLE20=Piggies - take unknown
TTITLE21=Piggies - unused overdub
TTITLE22=Happiness Is A Warm Gun - overdub track
TTITLE23=Happiness Is A Warm Gun - stereo with overdubs
TTITLE24=Glass Onion - RM2
TTITLE25=I'm So Tired - takes 3+6+9
TTITLE26=I'm So Tired - take 14
TTITLE27=I'm So Tired a
TTITLE28=I'm So Tired
TTITLE29=Why Don't We Do It In The Road
TTITLE30=Why Don't We Do It In The Road
TTITLE31=Julia - take 2
TTITLE32=Julia - take 3 partial
TTITLE33=How Do You Do
TTITLE34=Blackbird
TTITLE35=The Unicorn
TTITLE36=Lalena
TTITLE37=Heather
TTITLE38=Mr Wind
TTITLE39=The Walrus And The Carpenter
TTITLE40=Land Of Gisch
EXTD=
EXTT0=
EXTT1=
EXTT2=
EXTT3=
EXTT4=
EXTT5=
EXTT6=
EXTT7=
EXTT8=
EXTT9=
EXTT10=
EXTT11=
EXTT12=
EXTT13=
EXTT14=
EXTT15=
EXTT16=
EXTT17=
EXTT18=
EXTT19=
EXTT20=
EXTT21=
EXTT22=
EXTT23=
EXTT24=
EXTT25=
EXTT26=
EXTT27=
EXTT28=
EXTT29=
EXTT30=
EXTT31=
EXTT32=
EXTT33=
EXTT34=
EXTT35=
EXTT36=
EXTT37=
EXTT38=
EXTT39=
EXTT40=
PLAYORDER=
